<?xml version="1.0" encoding="UTF-8"?>
<!DOCTYPE svg PUBLIC "-//W3C//DTD SVG 1.1//EN" "http://www.w3.org/Graphics/SVG/1.1/DTD/svg11.dtd">
<svg version="1.1" xmlns="http://www.w3.org/2000/svg" xmlns:xlink="http://www.w3.org/1999/xlink" x="0" y="0" width="530" height="520" viewBox="0, 0, 530, 520">
  <defs>
    <clipPath id="Clip_1">
      <path d="M0.3,3.825 L530,3.825 L530,520 L0.3,520 z"/>
    </clipPath>
    <radialGradient id="Gradient_1" gradientUnits="userSpaceOnUse" cx="356.365" cy="181.921" r="35.019">
      <stop offset="0" stop-color="#EFA893"/>
      <stop offset="0.371" stop-color="#EFA893"/>
      <stop offset="1" stop-color="#F9CF97"/>
    </radialGradient>
    <radialGradient id="Gradient_2" gradientUnits="userSpaceOnUse" cx="188.415" cy="177.822" r="35.02">
      <stop offset="0" stop-color="#EFA893"/>
      <stop offset="0.371" stop-color="#EFA893"/>
      <stop offset="1" stop-color="#F9CF97"/>
    </radialGradient>
  </defs>
  <g id="Layer_1">
    <path d="M208.335,236.25 C201.46,235 175.21,242.5 161.46,255.625 C147.705,268.75 93.96,313.125 102.085,336.25 C110.205,359.375 120.835,367.5 135.21,368.125 C149.58,368.75 426.19,366.415 426.19,366.415 C426.19,366.415 418.785,323.29 403.33,290 C387.08,255 372.08,233.125 338.96,235.625 C305.835,238.125 208.335,236.25 208.335,236.25" fill="#53ACD4"/>
    <path d="M200.545,240.055 C200.545,240.055 205.175,264.87 221.155,275.86 C237.135,286.85 249.13,291.845 249.13,291.845 L265.105,261.875 L289.08,287.85 C289.08,287.85 311.06,281.855 319.05,275.86 C327.04,269.865 345.195,240.055 345.195,240.055 L265.105,255.885 L200.545,240.055" fill="#346B84"/>
    <path d="M271.465,292.11 C271.465,294.335 269.66,296.14 267.43,296.14 C265.205,296.14 263.395,294.335 263.395,292.11 C263.395,289.88 265.205,288.075 267.43,288.075 C269.66,288.075 271.465,289.88 271.465,292.11" fill="#346B84"/>
    <path d="M271.465,313.145 C271.465,315.37 269.66,317.175 267.43,317.175 C265.205,317.175 263.395,315.37 263.395,313.145 C263.395,310.91 265.205,309.105 267.43,309.105 C269.66,309.105 271.465,310.91 271.465,313.145" fill="#346B84"/>
    <g clip-path="url(#Clip_1)">
      <path d="M359.605,372.255 C359.36,372.255 359.11,372.215 358.855,372.14 C357.54,371.73 356.81,370.32 357.225,369.005 C358.785,364.025 362.855,350.125 362.855,345.73 C362.855,342.49 356.58,330.6 352.43,322.73 C350.015,318.16 347.93,314.215 346.865,311.725 C346.32,310.455 346.905,308.985 348.175,308.435 C349.425,307.9 350.91,308.475 351.465,309.75 C352.45,312.055 354.59,316.11 356.85,320.395 C363.295,332.605 367.855,341.57 367.855,345.73 C367.855,351.685 362.59,368.6 361.99,370.505 C361.655,371.57 360.67,372.255 359.605,372.255" fill="#FFFFFE"/>
      <path d="M530,520 L0,520 L43.335,365.83 L485.83,365.83 L530,520" fill="#C78863"/>
    </g>
    <path d="M345.915,479.485 L192.79,479.485 L205.51,372.95 L332.945,372.95 L345.915,479.485" fill="#FFFFFE"/>
    <path d="M156.325,170.645 C155.805,181.615 147.37,190.13 137.485,189.665 C127.6,189.195 120.005,179.92 120.53,168.955 C121.05,157.99 129.48,149.475 139.365,149.945 C149.25,150.415 156.845,159.685 156.325,170.645" fill="#F9CE97"/>
    <path d="M423.335,170.625 C422.815,181.59 414.385,190.105 404.5,189.64 C394.61,189.17 387.02,179.895 387.535,168.93 C388.055,157.965 396.485,149.455 406.38,149.925 C416.26,150.39 423.85,159.66 423.335,170.625" fill="#F9CE97"/>
    <path d="M403.115,147.11 C399.49,217.6 338.18,271.735 266.19,268.035 C194.195,264.33 138.77,204.175 142.4,133.69 C146.03,63.205 207.335,9.06 279.33,12.765 C351.32,16.47 406.745,76.625 403.115,147.11" fill="#F9CE97"/>
    <path d="M397.51,183.87 C396.785,199.04 377.78,210.46 355.055,209.385 C332.34,208.31 314.495,195.145 315.21,179.97 C315.935,164.805 334.94,153.385 357.665,154.455 C380.38,155.535 398.225,168.705 397.51,183.87 z" fill="url(#Gradient_1)"/>
    <path d="M229.565,179.77 C228.845,194.935 209.84,206.36 187.125,205.285 C164.4,204.21 146.555,191.04 147.275,175.875 C147.985,160.71 167,149.285 189.725,150.36 C212.445,151.435 230.28,164.605 229.565,179.77 z" fill="url(#Gradient_2)"/>
    <path d="M239.45,162.555 C239.005,171.92 231.665,179.185 223.07,178.775 C214.455,178.365 207.84,170.44 208.285,161.08 C208.725,151.71 216.06,144.445 224.67,144.855 C233.275,145.26 239.895,153.185 239.45,162.555" fill="#4B3110"/>
    <path d="M330.22,164.63 C329.78,173.995 322.445,181.26 313.845,180.85 C305.24,180.445 298.62,172.52 299.06,163.155 C299.5,153.78 306.845,146.52 315.455,146.93 C324.05,147.335 330.665,155.255 330.22,164.63" fill="#4B3110"/>
    <path d="M272.61,234.715 C259.255,234.715 245.485,228.085 235.635,216.875 C234.055,215.075 234.235,212.33 236.035,210.75 C237.83,209.165 240.575,209.345 242.16,211.145 C250.255,220.365 261.885,226.035 272.63,226.035 C272.81,226.035 272.985,226.03 273.16,226.03 C281.91,225.875 289.645,221.985 295.54,214.78 C297.055,212.93 299.79,212.645 301.65,214.17 C303.505,215.69 303.775,218.425 302.26,220.28 C294.7,229.52 284.695,234.51 273.32,234.71 C273.08,234.71 272.845,234.715 272.61,234.715" fill="#E26266"/>
    <path d="M231.845,169.875 C231.72,172.32 229.645,174.21 227.205,174.095 C224.755,173.975 222.87,171.9 222.985,169.455 C223.105,167.01 225.18,165.12 227.62,165.235 C230.065,165.355 231.955,167.43 231.845,169.875" fill="#FFFFFE"/>
    <path d="M324.275,171.05 C324.15,173.495 322.075,175.385 319.635,175.27 C317.185,175.15 315.3,173.075 315.415,170.63 C315.535,168.185 317.605,166.295 320.045,166.41 C322.495,166.53 324.385,168.605 324.275,171.05" fill="#FFFFFE"/>
    <g>
      <path d="M270.505,183.13 C268.855,183.23 265.79,184.8 264.49,186.86 C263.73,188.07 263.95,188.855 264.18,189.345 C264.6,190.225 265.76,190.36 266.41,190.36 C268.505,190.36 270.735,189.115 271.485,187.52 C272.09,186.255 271.76,184.78 270.505,183.13 z M266.41,194.695 L266.41,194.695 C263.565,194.695 261.325,193.43 260.265,191.215 C259.25,189.09 259.445,186.72 260.82,184.55 C262.995,181.095 267.605,178.775 270.545,178.775 C272.215,178.775 273.14,179.48 273.625,180.075 C277.04,184.25 276.21,187.7 275.41,189.38 C273.93,192.51 270.225,194.695 266.41,194.695" fill="#BF7951"/>
      <path d="M326.895,50.97 L370.205,110.625 L373.75,97.385 L384.8,125.935 L392.625,154.34 L394.815,142.045 L393.955,163.125 L401.115,145.58 L402.08,154.375 C402.08,154.375 406.105,149.08 408.335,136.25 C410.555,123.42 403.9,109.595 403.9,109.595 L413.96,114.375 L397.705,81.25 L410.21,88.75 C410.21,88.75 379,47.135 371.67,39.07 C362.95,29.495 331.725,17.24 331.725,17.24 C310.495,10.3 279.585,-1.875 242.085,6.875 C204.545,15.635 180.835,29.375 180.835,29.375 L193.335,31.25 L158.96,51.875 L167.085,56.25 C167.085,56.25 142.05,80.27 138.96,88.75 L147.085,88.125 C147.085,88.125 138.315,109.29 135.835,127.5 C135.835,127.5 141.94,123.405 141.775,126.87 C141.025,142.52 142.71,158.125 142.71,158.125 L148.335,138.125 L150.835,143.125 C150.835,143.125 155.355,122.08 169,107.095 C182.645,92.11 204.335,78.045 204.335,78.045 L187.645,100.43 C187.645,100.43 222.85,74.07 230.22,66.335 C237.6,58.6 210.835,96.25 210.835,96.25 C210.835,96.25 239.99,88.315 258.335,63.75 C266.55,52.75 249.585,89.375 249.585,89.375 C249.585,89.375 283.045,80.77 308.33,68.125 C318.335,63.125 333.74,54.525 333.74,54.525" fill="#4B3110"/>
    </g>
    <path d="M156.46,234.375 L130.83,244.375 L191.46,383.75 L191.855,384.115 C199.305,380.505 206.08,374.88 214.1,372.965 L156.46,234.375" fill="#2A7531"/>
    <path d="M217.165,396.37 L215.21,375.625 L214.1,372.965 C206.08,374.88 199.305,380.505 191.855,384.115 L212.25,403.09 C214.175,402.005 215.155,397.11 217.165,396.37" fill="#F5BF9A"/>
    <path d="M217.165,396.37 C215.155,397.11 214.175,402.005 212.25,403.09 L218.335,408.75 L217.165,396.37" fill="#1A1919"/>
    <path d="M334.1,131.1 C326.275,123.67 311.415,123.665 306.72,126.405 L307.11,123.28 L305.155,121.715 C305.155,121.715 318.065,118.19 326.67,122.885 C335.27,127.58 336.055,130.71 336.055,130.71 L334.1,131.1" fill="#4B3110"/>
    <path d="M201.45,130.755 C209.275,123.32 224.135,123.32 228.825,126.06 L228.435,122.93 L230.395,121.365 C230.395,121.365 217.485,117.845 208.88,122.54 C200.275,127.235 199.49,130.365 199.49,130.365 L201.45,130.755" fill="#4B3110"/>
    <path d="M366.255,353.855 C364.17,371.25 354.37,384.375 354.37,384.375 L409.56,400.065 L426.18,365.655 L366.255,353.855" fill="#53ACD4"/>
    <path d="M365.24,377.185 C362.51,379.37 343.865,389.985 337.155,398.7 C332.585,404.64 337.15,411.815 345.35,407.445 C353.55,403.075 358.685,399.595 358.135,411.08 C357.585,422.56 346.715,432.855 353.825,435.585 C360.93,438.315 367.43,412.72 370.165,418.735 C372.9,424.75 362.51,439.505 371.26,440.6 C380.005,441.695 377.05,418.375 382.19,420.375 C387.675,422.51 380.01,442.24 386.02,441.695 C392.03,441.15 389.295,421.465 394.765,420.92 C400.23,420.375 391.48,441.695 398.59,440.055 C405.7,438.42 404.52,423.19 405.7,414.905 C407.34,403.425 415.54,384.295 403.515,378.83 C391.48,373.355 365.24,377.185 365.24,377.185" fill="#F9CE97"/>
    <path d="M126.05,484.85 C126.05,484.85 63.505,478.295 51.745,485.17 L64.675,407.17 C64.675,407.17 121.855,405.105 127.44,411.68 L126.05,484.85" fill="#FFFFFE"/>
    <path d="M77.305,479.77 C95.195,479.77 116.68,481.675 123.84,482.36 L125.16,412.74 C123.25,411.69 115.37,409.12 83.93,409.12 C76.245,409.12 69.67,409.28 66.605,409.37 L54.615,481.665 C59.41,480.39 66.905,479.77 77.305,479.77 z M51.745,487.43 C51.295,487.43 50.845,487.3 50.46,487.03 C49.745,486.54 49.375,485.665 49.515,484.8 L62.445,406.795 C62.62,405.735 63.52,404.945 64.595,404.905 C64.68,404.905 73.25,404.6 83.93,404.6 C124.39,404.6 127.855,408.68 129.165,410.215 C129.52,410.635 129.71,411.17 129.7,411.725 L128.315,484.89 C128.3,485.52 128.025,486.125 127.55,486.545 C127.08,486.96 126.445,487.17 125.82,487.095 C125.55,487.07 98.765,484.29 77.305,484.29 C61.125,484.29 55.095,485.83 52.89,487.125 C52.53,487.33 52.14,487.43 51.745,487.43" fill="#989998"/>
    <path d="M124.695,484.855 C124.695,484.855 188.15,477.69 199.745,484.525 L191.025,405.95 C191.025,405.95 135.155,403.97 129.225,410.635 L124.695,484.855" fill="#FFFFFE"/>
    <path d="M131.425,411.745 L127.115,482.325 C134.85,481.525 157.86,479.31 176.175,479.31 C185.72,479.31 192.63,479.895 197.09,481.09 L188.99,408.155 C186.08,408.07 180.195,407.94 173.195,407.94 C141.19,407.94 133.325,410.6 131.425,411.745 z M124.695,487.12 C124.12,487.12 123.56,486.9 123.135,486.5 C122.655,486.04 122.4,485.385 122.44,484.72 L126.97,410.5 C127,409.99 127.2,409.51 127.535,409.13 C128.93,407.565 132.62,403.42 173.195,403.42 C183.295,403.42 191.1,403.69 191.1,403.69 C192.225,403.73 193.145,404.59 193.27,405.705 L201.99,484.275 C202.085,485.125 201.69,485.955 200.97,486.425 C200.255,486.89 199.33,486.915 198.595,486.475 C196.55,485.27 191.005,483.835 176.175,483.835 C154.175,483.835 125.235,487.07 124.95,487.105 C124.865,487.115 124.78,487.12 124.695,487.12" fill="#989998"/>
    <path d="M126.05,478.025 C126.05,478.025 63.505,471.475 51.745,478.35 L64.675,400.345 C64.675,400.345 121.855,398.285 127.44,404.855 L126.05,478.025" fill="#FFFFFE"/>
    <path d="M77.305,472.95 C95.195,472.95 116.68,474.855 123.84,475.535 L125.16,405.92 C123.25,404.87 115.37,402.3 83.93,402.3 C76.25,402.3 69.67,402.46 66.605,402.55 L54.615,474.845 C59.41,473.57 66.905,472.95 77.305,472.95 z M51.745,480.61 C51.295,480.61 50.845,480.48 50.46,480.21 C49.745,479.715 49.375,478.84 49.515,477.98 L62.445,399.975 C62.62,398.915 63.52,398.125 64.595,398.085 C64.68,398.085 73.25,397.78 83.93,397.78 C124.39,397.78 127.855,401.86 129.165,403.395 C129.52,403.815 129.71,404.35 129.7,404.9 L128.315,478.07 C128.3,478.7 128.025,479.3 127.55,479.72 C127.08,480.14 126.445,480.35 125.82,480.275 C125.55,480.25 98.765,477.47 77.305,477.47 C61.125,477.47 55.095,479.01 52.89,480.3 C52.53,480.505 52.14,480.61 51.745,480.61" fill="#989998"/>
    <path d="M124.695,478.035 C124.695,478.035 188.15,470.87 199.745,477.705 L191.025,399.13 C191.025,399.13 135.155,397.15 129.225,403.815 L124.695,478.035" fill="#FFFFFE"/>
    <path d="M131.425,404.92 L127.115,475.5 C134.85,474.7 157.86,472.49 176.175,472.49 C185.72,472.49 192.63,473.075 197.09,474.265 L188.99,401.335 C186.08,401.25 180.195,401.12 173.195,401.12 C141.19,401.12 133.325,403.78 131.425,404.92 z M124.695,480.295 C124.12,480.295 123.56,480.08 123.135,479.675 C122.655,479.22 122.4,478.565 122.44,477.9 L126.97,403.675 C127,403.17 127.2,402.69 127.535,402.31 C128.93,400.745 132.62,396.595 173.195,396.595 C183.295,396.595 191.1,396.87 191.1,396.87 C192.225,396.91 193.145,397.77 193.27,398.88 L201.99,477.455 C202.085,478.305 201.69,479.135 200.97,479.605 C200.255,480.065 199.33,480.09 198.595,479.65 C196.55,478.445 191.005,477.01 176.175,477.01 C154.175,477.01 125.235,480.25 124.95,480.28 C124.865,480.295 124.78,480.295 124.695,480.295" fill="#989998"/>
    <path d="M126.405,471.96 C126.405,471.96 65.325,465.78 53.87,472.345 L66.23,397.77 C66.23,397.77 122.235,395.74 127.715,402.05 L126.405,471.96" fill="#FFFFFE"/>
    <path d="M79.09,467.06 C96.45,467.06 117.19,468.83 124.185,469.475 L125.43,403.13 C123.525,402.125 115.81,399.715 85.56,399.715 C77.865,399.715 71.24,399.875 68.155,399.97 L56.735,468.875 C61.465,467.66 68.845,467.06 79.09,467.06 z M53.87,474.605 C53.415,474.605 52.965,474.465 52.58,474.2 C51.865,473.7 51.495,472.835 51.64,471.97 L63.995,397.395 C64.175,396.335 65.07,395.545 66.145,395.505 C66.235,395.505 74.88,395.2 85.56,395.2 C124.755,395.2 128.14,399.1 129.42,400.565 C129.79,400.99 129.985,401.53 129.975,402.095 L128.665,472 C128.65,472.63 128.375,473.225 127.905,473.645 C127.435,474.065 126.845,474.255 126.175,474.21 C125.915,474.18 99.995,471.58 79.09,471.58 C63.1,471.58 57.16,473.065 54.995,474.305 C54.645,474.505 54.255,474.605 53.87,474.605" fill="#989998"/>
    <path d="M125.075,471.97 C125.075,471.97 187.015,465.08 198.31,471.585 L189.98,396.505 C189.98,396.505 135.26,394.65 129.46,401.04 L125.075,471.97" fill="#FFFFFE"/>
    <path d="M131.655,402.17 L127.5,469.445 C135.14,468.66 157.675,466.525 175.535,466.525 C184.69,466.525 191.34,467.075 195.655,468.195 L187.945,398.705 C185.15,398.63 179.59,398.515 172.965,398.515 C141.395,398.515 133.565,401.06 131.655,402.17 z M125.075,474.235 C124.5,474.235 123.94,474.015 123.52,473.605 C123.035,473.15 122.775,472.5 122.82,471.83 L127.205,400.9 C127.235,400.385 127.44,399.9 127.785,399.52 C129.16,398.005 132.805,393.995 172.965,393.995 C182.64,393.995 190.055,394.245 190.055,394.245 C191.18,394.28 192.1,395.135 192.225,396.255 L200.555,471.335 C200.645,472.18 200.255,473.01 199.545,473.475 C198.83,473.945 197.91,473.96 197.18,473.545 C195.565,472.61 190.605,471.05 175.535,471.05 C154.04,471.05 125.615,474.19 125.325,474.22 C125.24,474.23 125.16,474.235 125.075,474.235" fill="#989998"/>
    <path d="M206.47,373.03 C205.985,373.03 205.52,372.75 205.32,372.275 L149.935,243.3 C149.66,242.665 149.955,241.93 150.59,241.66 C151.215,241.38 151.955,241.675 152.23,242.315 L207.615,371.29 C207.89,371.925 207.595,372.655 206.96,372.93 C206.8,373 206.635,373.03 206.47,373.03" fill="#85C168"/>
    <path d="M196.575,377.38 C196.09,377.38 195.625,377.1 195.425,376.625 L140.04,247.65 C139.77,247.015 140.06,246.28 140.695,246.01 C141.32,245.725 142.065,246.025 142.335,246.665 L197.72,375.64 C197.995,376.275 197.705,377.005 197.07,377.28 C196.905,377.35 196.74,377.38 196.575,377.38" fill="#85C168"/>
    <path d="M154.87,330.76 C156.54,322.425 164.08,320.72 164.08,320.72 L169.235,327.595 C169.235,327.595 181.54,338.675 188.205,342.425 C194.87,346.175 204.04,356.18 199.04,359.51 C194.04,362.84 179.48,356.18 179.48,356.18 C179.48,356.18 187.79,362.84 185.29,368.675 C182.79,374.51 183.73,374.83 183.73,374.83 C183.73,374.83 182.44,377.6 180.775,379.26 C179.11,380.93 179.035,385.955 174.87,385.535 C170.7,385.115 168.54,386.25 163.96,381.25 C159.375,376.25 153.125,364.845 154.375,355.265 C155.625,345.675 154.87,330.76 154.87,330.76" fill="#F9CE97"/>
    <path d="M192.5,320 C192.5,320 199.17,335.42 199.17,341.67 C199.17,347.92 198.75,356.25 202.5,356.25 C206.25,356.25 210,354.58 211.665,342.5 C213.335,330.42 209.58,321.25 201.67,317.92 C193.75,314.58 190.415,315.42 190.415,315.42 L192.5,320" fill="#F9CE97"/>
    <path d="M308.725,406.29 L235.19,406.29 C233.94,406.29 232.925,405.28 232.925,404.025 C232.925,402.775 233.94,401.765 235.19,401.765 L308.725,401.765 C309.975,401.765 310.985,402.775 310.985,404.025 C310.985,405.28 309.975,406.29 308.725,406.29" fill="#6B6C6B"/>
    <path d="M315.29,444.64 L223.365,444.64 C221.97,444.64 220.835,443.505 220.835,442.11 C220.835,440.71 221.97,439.58 223.365,439.58 L315.29,439.58 C316.685,439.58 317.82,440.71 317.82,442.11 C317.82,443.505 316.685,444.64 315.29,444.64" fill="#6B6C6B"/>
    <path d="M298.875,424.67 L225.34,424.67 C224.09,424.67 223.08,423.66 223.08,422.41 C223.08,421.16 224.09,420.15 225.34,420.15 L298.875,420.15 C300.125,420.15 301.135,421.16 301.135,422.41 C301.135,423.66 300.125,424.67 298.875,424.67" fill="#6B6C6B"/>
    <path d="M90.605,258 C73.865,241.07 87.42,206.405 111.19,208.545 C111.19,208.545 97.955,219.765 97.075,232.875 C96.19,245.98 104.69,265.825 104.69,265.825 L90.605,258" fill="#EE9E41"/>
    <path d="M113.855,254.525 C110.11,250.175 102.23,232.435 121.89,224.515 L113.855,254.525" fill="#EE9E41"/>
  </g>
</svg>
